# xmcd
#
# Track frame offsets:
#	150
#	29955
#	60193
#	77760
#	103027
#	115147
#	148338
#	173663
#	194311
#
# Disc length: 3035 seconds
# Revision: 0
# Processed by: cddbd v1.5.2PL0 Copyright (c) Steve Scherf et al.
# Submitted via: dBpowerAMP V12.0
#
DISCID=7a0bd909
DTITLE=Gary Peacock - Just Friends (TraxData-Gold) [dBP-LITE02-1-FLAC@]
DYEAR=1998
DGENRE=Jazz
TTITLE0=Just Friends
TTITLE1=Coming Yesterday
TTITLE2=Willow Weep for Me
TTITLE3=You Stepped Out of a Dream
TTITLE4=Hommage a Frédéric Chopin
TTITLE5=Sapristi
TTITLE6=Summertime
TTITLE7=Sacrebleu
TTITLE8=I'm Getting Sentimental over You
EXTD=
EXTT0=
EXTT1=
EXTT2=
EXTT3=
EXTT4=
EXTT5=
EXTT6=
EXTT7=
EXTT8=
PLAYORDER=
